<?xml version="1.0" encoding="UTF-8" standalone="no"?>
<!DOCTYPE svg PUBLIC "-//W3C//DTD SVG 1.1//EN" "http://www.w3.org/Graphics/SVG/1.1/DTD/svg11.dtd">
<svg width="100%" height="100%" viewBox="0 0 864 818" version="1.1" xmlns="http://www.w3.org/2000/svg" xmlns:xlink="http://www.w3.org/1999/xlink" xml:space="preserve" xmlns:serif="http://www.serif.com/" style="fill-rule:evenodd;clip-rule:evenodd;stroke-linejoin:round;stroke-miterlimit:2;">
    <g transform="matrix(1,0,0,1,323,31)">
        <path d="M26.18,12.223C29.849,14.535 49.072,27.48 49.625,27.727C67.958,37.557 90.256,59.055 99,78C99.781,81.985 100.401,85.15 100.533,128.739C100.824,146.92 107.242,160.58 119,174C119.66,174.33 121,176.32 121,177C121.66,177 123,178.398 123,179L133,186L147.16,191C161.532,194.743 188.608,194.273 239.581,193.825C272.47,193.641 272.47,193.641 285.176,205.121C290.882,210.998 293.061,217.72 294.168,221.258C294.489,222.703 295.462,307.119 294.873,338.263C294.849,339.505 293.131,338.837 290,353C288.71,354.376 287.373,355.708 286,357C282.928,357 285.139,364.815 249.07,367.546C242.933,368.011 219.84,369.76 172.157,369.61C149.739,369.633 134.116,374.744 117.434,390.41C93.032,416.378 92.609,539.231 121.532,569.553C122.388,570.396 124.926,572.899 133.887,578.094C144.407,583.55 189.663,584.958 194.546,585.11C257.714,587.075 260.681,579.962 275.336,594.004C280.589,600.305 280.345,607.792 280.398,615.668C278.73,629.618 199.255,704.664 195.625,707.875C195.469,708.015 172.391,731.82 150.91,751.469C146.652,754.882 141.524,754.455 136.305,754.402C131.32,753.795 128.132,751.896 125,748C114.559,730.614 123.728,644.554 120.702,628.281C120.035,624.694 115.147,598.411 103.625,586C59.032,543.422 -27.884,584.093 -61.688,552.938C-76.772,536.985 -75.434,515.777 -75.328,495.355C-75.213,398.638 -75.569,398.107 -71.813,393.062C-65.34,388.316 14.288,388.643 21.784,388.673C55.405,388.811 55.932,391.495 87.813,380.438C88.933,379.859 90.053,379.28 91.207,378.684C93.57,377.259 95.117,375.954 97,374C97.66,374 99,372.68 99,372C100.122,370.913 101.245,369.828 102.371,368.746C118.969,350.954 120.628,332.167 120.531,308.996C120.609,242.704 122.029,222.892 110,201C109.327,199.67 106.68,197 106,197C103.539,194.034 87.977,175.28 64.387,172.716C-52.048,167.956 -63.612,178.901 -71.551,186.414C-74.089,189.094 -73.985,188.986 -76.648,191.402C-88.401,202.33 -94.632,215.837 -95.274,231.996C-95.376,236.406 -95.501,304.319 -95.471,311.969C-95.502,329.156 -96.686,344.915 -109.375,357.625C-128.003,373.792 -157.47,368.427 -253.638,369.509C-263.065,369.448 -272.355,367.601 -279.383,360.875C-301.154,335.633 -318.325,228.568 -302,205C-301.319,203.928 -300.639,202.855 -299.938,201.75C-294.123,195.264 -284.688,194.717 -276.557,194.174C-255.636,193.153 -153.381,193.4 -142.67,193.426C-125.296,193.263 -113.2,189.143 -99.383,178.672C-97.327,177.23 -92.645,173.344 -92,172C-90.608,170.333 -89.188,168.689 -87.75,167.062C-85.24,164.02 -75.619,137.7 -75.05,130.656C-73.829,115.516 -74.473,30.89 -74.539,22.215C-74.443,13.317 -73.077,3.362 -67.375,-3.812C-65,-6 -62.34,-7.98 -62,-9C-44.026,-19.838 9.555,1.467 26.18,12.223Z" style="fill:rgb(20,142,95);fill-rule:nonzero;"/>
    </g>
    <g transform="matrix(1,0,0,1,681.562775,224.739304)">
        <path d="M0,0L3.873,-0.021L8.071,-0.014L12.532,-0.029C47.336,-0.059 82.139,-0.088 116.942,-0.118C136.198,-0.132 152.917,-2.037 162.437,5.698C168.324,14.733 170.6,24.455 170.57,35.089L170.575,37.335C170.578,39.604 170.525,39.555 170.428,65.689L170.418,68.098L170.412,70.265C169.921,97.059 162.736,144.84 143.437,164.261C131.914,174.555 119.618,176.612 104.519,176.44L101.074,176.426C13.055,176.035 -20.746,172.035 -42.563,193.261C-47.364,198.315 -50.841,204.194 -54.313,210.198L-55.456,212.149C-59.889,220.074 -62,228.208 -62.258,237.253L-62.361,240.008C-65.268,335.196 -56.66,339.014 -75.102,358.858C-86.099,369.594 -98.667,371.415 -113.44,371.406L-115.977,371.416C-118.718,371.426 -121.459,371.428 -124.199,371.429L-129.979,371.439C-186.289,371.522 -200.851,373.063 -214.125,365.886L-217.504,364.112C-228.694,357.338 -233.861,347.643 -237.115,335.139C-237.738,331.138 -237.71,327.206 -237.708,323.163L-237.718,320.411C-237.728,317.412 -237.73,314.412 -237.731,311.413L-237.741,305.131C-237.84,232.525 -238.731,229.736 -232.125,218.073L-230.317,214.78C-228.563,212.261 -214.791,199.374 -208.813,197.323C-202.194,195.416 -195.746,195.111 -188.908,195.103L-186.013,195.088C-115.22,194.722 -93.531,196.113 -77.25,187.511L-75.209,186.468C-70.581,184.021 -61.78,177.519 -61.456,177.406C-61.039,177.261 -56.785,172.694 -56.785,172.694C-55.826,170.785 -54.851,168.882 -53.871,166.983L-52,163.323L-51.041,161.481C-49.304,158.062 -45.563,150.261 -45.563,150.261C-45.286,149.153 -44.883,147.26 -44.437,145.004C-43.256,139.018 -41.775,130.474 -41.563,127.261C-41.405,127.194 -42.024,60.356 -41.986,57.509C-41.936,53.758 -41.569,26.243 -29,12.448C-20.489,4.81 -11.733,0.022 0,0Z" style="fill:rgb(20,142,95);fill-rule:nonzero;"/>
    </g>
    <g transform="matrix(1,0,0,1,294.632812,224.838867)">
        <path d="M115.367,11.161C131.305,29.354 128.622,58.985 128.635,97.233C128.649,136.704 131.415,146.719 117.141,161.646C97.385,178.529 65.238,175.34 35.064,175.4C-19.765,175.508 -35.42,176.571 -43.633,172.161C-48.659,165.483 -46.961,115.57 -46.352,52.844C-46.277,45.064 -46.516,26.574 -32.437,10.849C-30.633,9.161 -28.633,7.841 -28.633,7.161C-27.973,7.161 -26.633,5.841 -26.633,5.161L-17.746,2.134C-9.28,-0.511 2.568,-0.011 64.858,-0.162C92.333,-0.229 100.649,-2.71 115.367,11.161Z" style="fill:rgb(20,142,95);fill-rule:nonzero;"/>
    </g>
    <g transform="matrix(1,0,0,1,607.8125,21.6875)">
        <path d="M0,0C0.809,0.856 2.7,2.854 7.875,12.437C12.039,21.559 11.49,124.286 11.547,136.944C11.652,160.718 12.588,174.49 9.283,178.79C5.041,181.872 4.564,180.508 -114.967,181.821C-126.645,181.748 -139.371,178.834 -148.438,171.062C-149.3,170.064 -151.858,167.101 -158.5,158C-164.959,144.774 -163.993,129.095 -164,114.75C-164.018,112.79 -164.018,112.79 -164.037,110.791C-164.074,86.001 -164.074,86.001 -155.812,77.312C-151.495,77.312 -155.829,71.486 -117.25,39.562C-102.17,27.476 -35.783,-1.975 -28.023,-2.708C-25.781,-2.92 -7.712,-4.627 0,0Z" style="fill:rgb(20,142,95);fill-rule:nonzero;"/>
    </g>
    <g transform="matrix(1,0,0,1,756,63)">
        <path d="M0,0L15,12C15,12.014 35.588,33.504 35.699,33.605C37,35 38.32,37 39,37C39,37.66 40.32,39 41,39C42.743,42.887 43.931,43.93 44.305,44.258C45.29,45.27 82.867,92.923 78.438,120.375C77.252,125.119 75.197,128.323 72,132C71.687,132 70,133.32 70,134L62.676,137.809C55.954,140.802 -20.415,140.762 -27.644,140.758C-54.877,140.744 -81.48,140.674 -96,134C-96.69,133.733 -97.379,133.466 -98.09,133.191C-103.52,130.6 -109.22,120.665 -109.944,119.403C-119.154,102.24 -116.861,46.272 -116.625,-6.563C-116.617,-8.336 -116.576,-17.609 -111,-28C-110.34,-28 -100.907,-36.939 -96,-39C-64.136,-45.003 -23.194,-18.858 0,0Z" style="fill:rgb(20,142,95);fill-rule:nonzero;"/>
    </g>
    <g transform="matrix(1,0,0,1,215,28)">
        <path d="M0,0C7.336,6.33 10.747,14.535 12,24C12.229,29.212 12.342,83.018 12.418,106.756C12.447,115.725 14.632,145.308 0.035,162.285C-10.789,172.757 -28.357,174.603 -31.024,174.883C-41.865,176.021 -145.206,176.445 -162.38,175.05C-168.355,174.565 -175.377,167.855 -176.309,166.965C-181.764,160.628 -183.234,153.692 -183.201,145.526C-182.327,134.554 -173.148,117.387 -171.924,115.098C-164.272,100.788 -162.256,102.126 -155,87.699C-153.887,85.808 -152.565,84.528 -151,83C-143.491,71.394 -113.253,42.266 -106,37C-91.953,26.431 -92.394,26.124 -77.146,17.48C-20.568,-14.249 -20.568,-14.249 0,0Z" style="fill:rgb(20,142,95);fill-rule:nonzero;"/>
    </g>
    <g transform="matrix(1,0,0,1,296.736572,615.854736)">
        <path d="M0,0C1.287,-0.005 1.287,-0.005 2.599,-0.01C5.426,-0.02 8.253,-0.022 11.08,-0.023C13.058,-0.026 15.036,-0.029 17.014,-0.033C21.161,-0.039 25.307,-0.041 29.454,-0.04C34.737,-0.04 40.02,-0.054 45.303,-0.071C49.391,-0.082 53.479,-0.084 57.567,-0.083C59.513,-0.085 61.459,-0.089 63.405,-0.097C99.607,-0.228 99.607,-0.228 112.263,12.145C112.263,12.805 113.583,14.145 114.263,14.145C116.068,16.427 116.068,16.427 118.138,19.645C118.816,20.666 119.495,21.687 120.193,22.739C127.903,37.639 126.833,54.41 126.735,70.689C126.717,74.258 126.721,77.828 126.722,81.397C126.72,87.38 126.703,93.362 126.675,99.345C126.644,106.237 126.633,113.128 126.635,120.02C126.636,127.404 126.622,134.788 126.604,142.172C126.599,144.282 126.598,146.392 126.597,148.502C126.595,152.445 126.575,156.387 126.554,160.33C126.555,161.485 126.556,162.639 126.557,163.829C126.504,170.497 125.857,176.665 124.263,183.145C118.95,184.312 116.06,183.65 111.263,181.145C108.693,179.344 106.389,177.325 104.076,175.208C102.896,174.156 101.715,173.106 100.533,172.055C99.978,171.556 99.423,171.056 98.851,170.542C97.431,169.293 27.683,99.632 22.778,93.871C19.58,90.227 16.031,86.914 12.543,83.552C11.081,82.118 -31.854,40.734 -33.073,28.876C-33.22,15.476 -33.22,15.476 -28.737,10.145C-19.967,1.916 -11.731,-0.007 0,0Z" style="fill:rgb(21,142,95);fill-rule:nonzero;"/>
    </g>
    <g transform="matrix(1,0,0,1,107.271729,419.854736)">
        <path d="M0,0C0.82,-0.003 1.641,-0.007 2.486,-0.01C5.193,-0.02 7.9,-0.022 10.607,-0.023C12.499,-0.026 14.392,-0.029 16.284,-0.033C20.252,-0.039 24.221,-0.041 28.189,-0.04C33.247,-0.04 38.305,-0.054 43.363,-0.071C47.274,-0.082 51.185,-0.084 55.097,-0.083C56.96,-0.085 58.823,-0.089 60.685,-0.097C78.226,-0.163 94.367,0.264 107.728,13.145C108.982,15.364 113.653,21.433 114.603,23.583C115.137,24.778 115.671,25.973 116.22,27.204C120.3,37.41 120.07,47.665 120.142,58.469C120.161,60.262 120.181,62.054 120.201,63.846C120.252,68.55 120.292,73.255 120.329,77.959C120.369,82.708 120.42,87.457 120.47,92.206C120.647,109.393 120.647,109.393 120.696,117.796C120.713,120.606 120.748,123.415 120.799,126.225C120.815,127.457 120.831,128.688 120.847,129.957C120.866,131.015 120.885,132.074 120.904,133.164C120.477,140.4 117.347,147.603 112.728,153.145C104.782,159.975 96.872,159.723 86.728,159.145C80.712,158.011 75.816,153.515 71.728,149.145C71.453,148.557 64.409,141.844 62.746,139.789C58.186,134.409 53.18,129.501 48.173,124.545C46.418,122.808 44.666,121.067 42.916,119.324C37.945,114.378 32.969,109.437 27.988,104.501C24.928,101.468 3.748,79.485 2.728,79.145C1.326,77.755 1.326,77.755 -0.209,75.895C-2.904,72.706 -5.677,69.629 -8.543,66.595C-32.105,41.562 -32.105,41.562 -31.939,23.219C-31.609,16.876 -29.867,13.358 -25.272,9.145C-24.467,8.217 -23.663,7.289 -22.834,6.333C-16.087,0.573 -8.497,-0.005 0,0Z" style="fill:rgb(20,142,95);fill-rule:nonzero;"/>
    </g>
    <g transform="matrix(1,0,0,1,686.118896,420.741211)">
        <path d="M98.881,7.259C104.735,14.198 106.05,21.74 106.244,30.571C103.383,51.738 23.808,124.362 -3.671,152.869C-10.637,159.555 -31.675,158.713 -37.779,152.595C-40.925,148.714 -43.453,144.224 -45.056,139.492C-47.072,133.544 -51.391,41.457 -41.119,23.259C-40.686,22.439 -40.253,21.619 -39.806,20.774C-34.074,11.068 -24.261,4.328 -13.553,1.226C-7.333,-0.301 21.421,-0.009 64.321,-0.014C65.192,-0.014 88.317,-1.852 98.881,7.259Z" style="fill:rgb(20,142,95);fill-rule:nonzero;"/>
    </g>
</svg>
